<?xml version="1.0" encoding="UTF-8" standalone="no"?>
<svg xmlns="http://www.w3.org/2000/svg" xmlns:xlink="http://www.w3.org/1999/xlink" viewBox="0 0 180 180" width="180pt" height="180pt">
  <g fill="#7D4CDB">
    <path
      d="M 133.16 140 L 145.16 140 C 147.367 140 149.16 141.792 149.16 144 L 149.16 156.132 C 149.16 158.34 147.367 160.132 145.16 160.132 L 133.16 160.132 C 130.952 160.132 129.16 158.34 129.16 156.132 L 129.16 144 C 129.16 141.792 130.952 140 133.16 140 Z"
    />
    <path
      d="M 53.44 140 L 65.44 140 C 67.647 140 69.44 141.792 69.44 144 L 69.44 166 C 69.44 168.208 67.647 170 65.44 170 L 53.44 170 C 51.232 170 49.44 168.208 49.44 166 L 49.44 144 C 49.44 141.792 51.232 140 53.44 140 Z"
    />
    <path
      d="M 113.44 40 L 125.44 40 C 127.647 40 129.44 41.792 129.44 44 L 129.44 66 C 129.44 68.208 127.647 70 125.44 70 L 113.44 70 C 111.232 70 109.44 68.208 109.44 66 L 109.44 44 C 109.44 41.792 111.232 40 113.44 40 Z"
    />
    <path
      d="M 143.44 60 L 165.44 60 C 167.647 60 169.44 61.792 169.44 64 L 169.44 86 C 169.44 88.208 167.647 90 165.44 90 L 143.44 90 C 141.232 90 139.44 88.208 139.44 86 L 139.44 64 C 139.44 61.792 141.232 60 143.44 60 Z"
    />
    <path
      d="M 13.44 80 L 55.44 80 C 57.647 80 59.44 81.792 59.44 84 L 59.44 106 C 59.44 108.208 57.647 110 55.44 110 L 13.44 110 C 11.232 110 9.44 108.208 9.44 106 L 9.44 84 C 9.44 81.792 11.232 80 13.44 80 Z"
    />
    <path
      d="M 73.44 80 L 125.44 80 C 127.647 80 129.44 81.792 129.44 84 L 129.44 126 C 129.44 128.208 127.647 130 125.44 130 L 73.44 130 C 71.232 130 69.44 128.208 69.44 126 L 69.44 84 C 69.44 81.792 71.232 80 73.44 80 Z"
    />
    <path
      d="M 63.44 10 L 65.44 10 C 67.647 10 69.44 11.792 69.44 14 L 69.44 36 C 69.44 38.208 67.647 40 65.44 40 L 63.44 40 C 61.232 40 59.44 38.208 59.44 36 L 59.44 14 C 59.44 11.792 61.232 10 63.44 10 Z"
    />
    <path
      d="M 23.44 50 L 25.44 50 C 27.647 50 29.44 51.792 29.44 54 L 29.44 66 C 29.44 68.208 27.647 70 25.44 70 L 23.44 70 C 21.232 70 19.44 68.208 19.44 66 L 19.44 54 C 19.44 51.792 21.232 50 23.44 50 Z"
    />
    <path
      d="M 64 50 L 95.44 50 C 97.647 50 99.44 51.792 99.44 54 L 99.44 66 C 99.44 68.208 97.647 70 95.44 70 L 64 70 C 61.792 70 60 68.208 60 66 L 60 54 C 60 51.792 61.792 50 64 50 Z"
    />
    <path
      d="M 143.44 100 L 145.44 100 C 147.647 100 149.44 101.792 149.44 104 L 149.44 126 C 149.44 128.208 147.647 130 145.44 130 L 143.44 130 C 141.232 130 139.44 128.208 139.44 126 L 139.44 104 C 139.44 101.792 141.232 100 143.44 100 Z"
    />
    <path
      d="M 83.44 140 L 115.44 140 C 117.647 140 119.44 141.792 119.44 144 L 119.44 146 C 119.44 148.208 117.647 150 115.44 150 L 83.44 150 C 81.232 150 79.44 148.208 79.44 146 L 79.44 144 C 79.44 141.792 81.232 140 83.44 140 Z"
    />
    <path
      d="M 43.44 30 L 45.44 30 C 47.647 30 49.44 31.792 49.44 34 L 49.44 66 C 49.44 68.208 47.647 70 45.44 70 L 43.44 70 C 41.232 70 39.44 68.208 39.44 66 L 39.44 34 C 39.44 31.792 41.232 30 43.44 30 Z"
    />
    <path
      d="M 83.44 30 L 95.44 30 C 97.647 30 99.44 31.792 99.44 34 L 99.44 36 C 99.44 38.208 97.647 40 95.44 40 L 83.44 40 C 81.232 40 79.44 38.208 79.44 36 L 79.44 34 C 79.44 31.792 81.232 30 83.44 30 Z"
    />
    <path
      d="M 33.44 120 L 55.44 120 C 57.647 120 59.44 121.792 59.44 124 L 59.44 126 C 59.44 128.208 57.647 130 55.44 130 L 33.44 130 C 31.232 130 29.44 128.208 29.44 126 L 29.44 124 C 29.44 121.792 31.232 120 33.44 120 Z"
    />
    <path
      d="M 115.72 160 L 113.44 160 C 111.232 160 109.44 161.792 109.44 164 L 109.44 166 C 109.44 168.208 111.232 170 113.44 170 L 115.72 170 C 117.928 170 119.72 168.208 119.72 166 L 119.72 164 C 119.72 161.792 117.928 160 115.72 160 Z"
    />
    <path
      d="M 15.44 120 L 13.16 120 C 10.952 120 9.16 121.792 9.16 124 L 9.16 126 C 9.16 128.208 10.952 130 13.16 130 L 15.44 130 C 17.647 130 19.44 128.208 19.44 126 L 19.44 124 C 19.44 121.792 17.647 120 15.44 120 Z"
    />
    <path
      d="M 35.72 140 L 33.44 140 C 31.232 140 29.44 141.792 29.44 144 L 29.44 146 C 29.44 148.208 31.232 150 33.44 150 L 35.72 150 C 37.928 150 39.72 148.208 39.72 146 L 39.72 144 C 39.72 141.792 37.928 140 35.72 140 Z"
    />
    <path
      d="M 165.72 110 L 163.44 110 C 161.232 110 159.44 111.792 159.44 114 L 159.44 116 C 159.44 118.208 161.232 120 163.44 120 L 165.72 120 C 167.928 120 169.72 118.208 169.72 116 L 169.72 114 C 169.72 111.792 167.928 110 165.72 110 Z"
    />
    <path
      d="M 145.72 40 L 143.44 40 C 141.232 40 139.44 41.792 139.44 44 L 139.44 46 C 139.44 48.208 141.232 50 143.44 50 L 145.72 50 C 147.928 50 149.72 48.208 149.72 46 L 149.72 44 C 149.72 41.792 147.928 40 145.72 40 Z"
    />
    <path
      d="M 115.44 20 L 113.16 20 C 110.952 20 109.16 21.792 109.16 24 L 109.16 26 C 109.16 28.208 110.952 30 113.16 30 L 115.44 30 C 117.647 30 119.44 28.208 119.44 26 L 119.44 24 C 119.44 21.792 117.647 20 115.44 20 Z"
    />
  </g>
</svg>